<svg xmlns="http://www.w3.org/2000/svg" viewBox="0 0 841.14 347.64"><defs><style>.cls-1{fill:#bb2026;}.cls-2{fill:#888;}</style></defs><g id="Layer_2" data-name="Layer 2"><g id="Layer_1-2" data-name="Layer 1"><path class="cls-1" d="M103,144.56C115.58,101,152.42,0,166,0c5,0,16.38,2.46,19.53,6.3-6.3,80.49-1.57,158.52,11.65,220.39.63,3-16.37,3.56-27.08-2.46-9.45-5.2-15.12-119.1-11.65-177.41-25.83,53.38-49.13,113.62-50.08,159.34-1.26,2.46-5.35,2.46-7.55,2.46-7.56,0-17-3.83-18.9-11.22-6-51.75-10.71-86.24-5.67-139.36L75,56.67C62.35,75,38.42,133.88,28.34,198.22c0,5.47,8.51,0,7.25,6.57-1.26,7.39-6.62,15.33-10.08,22.72S1.89,224.78,0,222C.63,163.45,43.46,33.68,82.83,9.86,90.07,11,95.42,14.24,99.2,19.71c-5,33.4-1.57,105.41,1.58,124.85Z"/><path class="cls-1" d="M243.75,64.06c4.09,1.92,7.24,4.39,8.19,6.85a19.8,19.8,0,0,1,11-3.29c33.06,0,38.42,26.56,37.47,55-1.26,30.12-13.22,95.28-53.85,95.28-33.07,0-45-37.78-44.09-67.9C204.07,114.44,223.91,69.27,243.75,64.06Zm-2.84,134.71c29.29,0,39-73.1,39.68-89.26.32-7.94,2.21-27.38-10.39-27.38-18.26,0-33.07,47.92-36.22,63.52-.31,1.1-7.24-1.09-9.13-2.46a94.32,94.32,0,0,0-2.2,17.79C221.7,181.79,228,198.77,240.91,198.77Z"/><path class="cls-1" d="M337.59,128.4c8.19-17.52,14.49-42.16,18.9-55.85,2.2-6.57,10.39-8.76,19.52-6.84,6.62,1.37,10.08,4.1,10.08,9.58,0,10.13-13.54,26.28-13.54,46.27,0,3.83,4.41,8.21,9.45,8.21,12.59,0,16.37-16.15,18.26-16.15,2.21,0,5,1.64,5,3.56-.63,9.58-10.39,25.19-26.77,25.19-18.58,0-23.3-10.68-24.56-22.73-5.67,14.79-20.79,46.27-21.42,91.17-7.24,3.83-27.71-3.83-27.71-9.85,0-7.94,3.47-18.07,6-77.48.94-27.11,1.88-53.39,12.59-53.39,8.19,0,17.95,6.3,17.95,6.3-.94,14.78-5,35-6,51.19Z"/><path class="cls-1" d="M385.46,79.4c3.46-2.47,18-5.75,33.69-8.49,5.67-18.62,11.34-32.58,14.81-34.77,5.35-3.29,21.73,7.12,20.78,10.13l-6.3,20.26c6-.82,11-1.37,14.8-1.64,6.93-.55,12.92-1.65,14.81,1.91,1.88,3.84,4.72.82,8.5,4.11,1.57,1.37,6.61,7.39,6.61,9,0,1.92-.63,4.11-4.72,4.11-12.91.27-30.55,2.19-46.61,4.38-10.39,35.05-20.16,73.92-20.16,98.84,0,7.12,3.47,11.5,10.08,11.5,18.58,0,44.09-19.44,45.35-34,0,0,11.34-2.47,11.34,14,0,18.62-29.92,40-50.07,40C417,218.75,399,199.31,399,171.11c0-16.42,6.3-49.28,14.17-78.57L399,95.28C390.81,96.92,381.05,82.68,385.46,79.4Z"/><path class="cls-1" d="M517.41,64.06c4.09,1.92,7.24,4.39,8.19,6.85a19.84,19.84,0,0,1,11-3.29c33.07,0,38.42,26.56,37.48,55-1.26,30.12-13.23,95.28-53.85,95.28-33.07,0-45-37.78-44.09-67.9C477.73,114.44,497.57,69.27,517.41,64.06Zm-2.83,134.71c29.28,0,39-73.1,39.68-89.26.31-7.94,2.2-27.38-10.4-27.38-18.26,0-33.06,47.92-36.21,63.52-.32,1.1-7.25-1.09-9.13-2.46A94.77,94.77,0,0,0,496.31,161C495.37,181.79,501.66,198.77,514.58,198.77Z"/><path class="cls-1" d="M633.93,120.19c-12.91,24.37-29.6,70.91-29.29,96.65a16.1,16.1,0,0,1-10.7,4.1c-14.17,0-18-14.78-18-35.59C576,127,584.17,72,603.38,72c3.78,0,11,.55,10.08,7.4-3.78,26.28-12.59,51.74-12.59,78.85h1.25c12-30.39,23.94-63,41.57-92.54,1.26-2.47,4.1-2.47,6.93-2.47,8.51,0,23,4.93,22,13.69-2.52,27.93-19.21,63.52-19.21,99.93,0,14,4.09,20.81,12.91,20.81,10.39,0,16.69-14.51,19.21-21.63,0,0,6.93.55,6.93,7.39,0,11.78-13.54,32.86-35.59,32.86-21.41,0-27.4-19.71-27.4-41.89,0-11.77,5-40.25,8.19-54.21Z"/><path class="cls-1" d="M734.7,21.35c-7.24,23-20.78,52.3-29.6,64.89l-17.64,1.92C694.39,72,702.58,43.53,706,23.82Z"/><path class="cls-1" d="M770.6,109.51S828.55,132,828.55,179.6c0,31.49-19.22,43.26-40.95,43.26-26.45,0-52-25.74-52-47.37,0-10.13,7.56-31.75,18.9-31.75,4.41,0,14.17,7.66,14.17,10.13,0,8.76-13.54,30.39-13.54,32.85s4.09,15.88,22.36,15.88c19.84,0,29.28-12.6,29.28-31.21,0-27.93-29.6-48.19-50.38-50.38-5.67-4.11-8.82-13.69-8.19-20.81C749.5,88.71,826,64.89,830.75,64.89c3.15,0,10.39,7.11,10.39,12,0,10.41-21.41,25.46-29.29,25.46-3.15,0-4.09-7.39-7.24-7.39-8.19.28-32.12,11.23-34.33,13.42Z"/><path class="cls-2" d="M120.08,249.82l1,3H110.93l.94-3v-5.1h-8.11v18.41l13.68,5.66,2.64,4.06v24.82l-4,4.05H99.7l-4.15-4.05v-9.16l-1-3h10.2l-1,3v5.1h8.11v-18.4l-13.59-5.67-2.73-4.06V240.57l4.15-4.06H116l4,4.06Z"/><path class="cls-2" d="M150.76,301.72H126.31l1-3.11V239.53l-1-3h24.45l1,8.12H135.47V265h5.09l3.12-1v10.2l-3.12-1h-5.09v20.38h16.32Z"/><path class="cls-2" d="M171.61,238.78l7.36,58.6,1.42,4.34H170.2l.94-2.64-1.42-14.72-5.09,3.21-1.13,11.51.84,2.64H154.15l1.42-4.34,7.36-58.6-.76-2.27h10.2Zm-6,39.07,3.3-2.08-1.6-15.85Z"/><path class="cls-2" d="M185.2,239.53l-1-3h24.45l1,8.12H193.32V265h5.09l3-1v10.2l-3-1h-5.09v25.48l1,3.11H184.16l1-3.11Z"/><path class="cls-2" d="M234.27,236.51l4.06,4.06v57.1l-4.06,4.05H218l-4.06-4.05v-57.1l4.06-4.06Zm-4.15,8.21H222v48.89h8.11Z"/><path class="cls-2" d="M264.38,236.51l4.06,4.06v57.1l-4.06,4.05H248.05L244,297.67v-57.1l4.06-4.06Zm-4.15,8.21h-8.12v48.89h8.12Z"/><path class="cls-2" d="M275,239.53l-.94-3h21.42l4.06,4.06v57.1l-4.06,4.05H274.1l.94-3.11Zm8.21,5.1v48.88h8.12V244.63Z"/><path class="cls-2" d="M334.31,301.72H324.12l1-3V239.63l-1-3.12h21.42l4.06,4.06v28.6l-4.06,4.05L349,297.57l1.32,4.15H340.16l.94-2.64-3.77-25.86h-4.06V298.7Zm-1-36.61h8.21V244.72h-8.21Z"/><path class="cls-2" d="M380,301.72H355.54l1-3.11V239.53l-1-3H380l1,8.12H364.7V265h5.09l3.12-1v10.2l-3.12-1H364.7v20.38H381Z"/><path class="cls-2" d="M410.28,249.82l1,3h-10.2l.95-3v-5.1H394v18.41l13.69,5.66,2.64,4.06v24.82l-4.06,4.05H389.89l-4.15-4.05v-9.16l-.94-3H395l-1,3v5.1h8.12v-18.4l-13.59-5.67-2.74-4.06V240.57l4.15-4.06h16.33l4.06,4.06Z"/><path class="cls-2" d="M438.31,236.51l1,8.21h-8.11v54l1,3h-10.2l1-3v-54H414.9l1-8.21Z"/><path class="cls-2" d="M455.86,238.78l7.36,58.6,1.42,4.34h-10.2l.95-2.64L454,284.36l-5.09,3.21-1.14,11.51.85,2.64H438.4l1.42-4.34,7.36-58.6-.76-2.27h10.2Zm-6,39.07,3.3-2.08-1.6-15.85Z"/><path class="cls-2" d="M494,236.51l-1,3.12v58l-4.06,4.05H472.56l-4.05-4.05v-58l-1-3.12h10.19l-1,3.12v54h8.21v-54l-1-3.12Z"/><path class="cls-2" d="M509.84,301.72H499.65l1-3V239.63l-1-3.12h21.42l4.06,4.06v28.6l-4.06,4.05,3.49,24.35,1.32,4.15H515.69l.95-2.64-3.78-25.86H508.8V298.7Zm-1-36.61H517V244.72H508.8Z"/><path class="cls-2" d="M546.65,238.78l7.36,58.6,1.41,4.34H545.23l.94-2.64-1.41-14.72-5.1,3.21-1.13,11.51.85,2.64H529.19l1.41-4.34,7.36-58.6-.75-2.27H547.4Zm-6,39.07,3.3-2.08-1.6-15.85Z"/><path class="cls-2" d="M568.35,298.7l1,3H559.2l1-3V239.63l-1-3.12h9.15l8.21,35.58V239.63l-1-3.12h10.2l-1,3.12V298.7l1,3h-9.16l-8.21-35.57Z"/><path class="cls-2" d="M613.18,236.51l1,8.21H606.1v54l1,3H597l1-3v-54h-8.21l1-8.21Z"/><path class="cls-2" d="M652.72,238.78l7.36,58.6,1.42,4.34H651.3l1-2.64-1.42-14.72-5.09,3.21-1.14,11.51.85,2.64H635.26l1.42-4.34,7.36-58.6-.76-2.27h10.2Zm-6,39.07,3.3-2.08-1.6-15.85Z"/><path class="cls-2" d="M674.43,298.7l1,3H665.27l1-3V239.63l-1-3.12h9.16l8.21,35.58V239.63l-1-3.12h10.19l-1,3.12V298.7l1,3h-9.15l-8.21-35.57Z"/><path class="cls-2" d="M698.4,239.53l-.95-3h21.43l4,4.06v57.1l-4,4.05H697.45l.95-3.11Zm8.21,5.1v48.88h8.11V244.63Z"/><path class="cls-2" d="M748.51,239.53l-1-3h21.42l4.06,4.06V265l-4.15,4.06,4.15,4.06v24.54l-4.06,4.05H747.47l1-3.11Zm8.21,5.1V265h8.11V244.63Zm8.11,28.5h-8.11v20.38h8.11Z"/><path class="cls-2" d="M794.18,238.78l7.37,58.6,1.41,4.34H792.77l.94-2.64-1.41-14.72-5.1,3.21-1.13,11.51.85,2.64h-10.2l1.42-4.34,7.36-58.6-.75-2.27h10.19Zm-6,39.07,3.31-2.08-1.61-15.85Z"/><path class="cls-2" d="M816.93,301.72H806.74l1-3V239.63l-1-3.12h21.42l4.06,4.06v28.6l-4.06,4.05,3.49,24.35,1.32,4.15H822.78l.94-2.64L820,273.22h-4.06V298.7Zm-1-36.61h8.21V244.72h-8.21Z"/><path class="cls-2" d="M307,347.2V321.89h18v1.73H308.83v9.95h14.5v1.73h-14.5v10.17h16.31v1.73Z"/><path class="cls-2" d="M339.75,347.57a14.43,14.43,0,0,1-10.2-4.05l1.23-1.42a12.28,12.28,0,0,0,9.08,3.77c3.8,0,6.4-2.14,6.4-5v-.07c0-2.68-1.41-4.24-7.16-5.39-6.08-1.23-8.54-3.29-8.54-7.13v-.07c0-3.76,3.44-6.66,8.14-6.66a12.63,12.63,0,0,1,8.68,3.08l-1.19,1.48a10.92,10.92,0,0,0-7.56-2.86c-3.73,0-6.19,2.14-6.19,4.78v.07c0,2.68,1.38,4.3,7.38,5.53s8.32,3.3,8.32,7v.07C348.14,344.74,344.63,347.57,339.75,347.57Z"/><path class="cls-2" d="M362.68,323.62V347.2H360.8V323.62H352v-1.73H371.5v1.73Z"/><path class="cls-2" d="M395.12,347.2l-3.22-7.09H377l-3.22,7.09h-1.95l11.79-25.5h1.81l11.79,25.5Zm-10.67-23.43-6.69,14.65h13.35Z"/><path class="cls-2" d="M413.53,347.2h-11V321.89H413c4.92,0,8.22,2.42,8.22,6.22v.07a6.26,6.26,0,0,1-4.31,6c3,.8,5.72,2.54,5.72,6v.08C422.61,344.53,419,347.2,413.53,347.2Zm5.75-18.91c0-2.79-2.28-4.67-6.33-4.67h-8.54v9.95h8.36c3.8,0,6.51-1.85,6.51-5.21Zm1.41,11.93c0-3.11-2.71-4.92-7.71-4.92h-8.57v10.17h9.19c4.34,0,7.09-2,7.09-5.17Z"/><path class="cls-2" d="M428.64,347.2V321.89h1.88v23.58h14.87v1.73Z"/><path class="cls-2" d="M451.28,347.2V321.89h1.88V347.2Z"/><path class="cls-2" d="M469.51,347.57a14.43,14.43,0,0,1-10.2-4.05l1.23-1.42a12.28,12.28,0,0,0,9.08,3.77c3.8,0,6.4-2.14,6.4-5v-.07c0-2.68-1.41-4.24-7.16-5.39-6.08-1.23-8.54-3.29-8.54-7.13v-.07c0-3.76,3.44-6.66,8.14-6.66a12.63,12.63,0,0,1,8.68,3.08L476,326.08a10.92,10.92,0,0,0-7.56-2.86c-3.73,0-6.19,2.14-6.19,4.78v.07c0,2.68,1.38,4.3,7.38,5.53s8.32,3.3,8.32,7v.07C477.9,344.74,474.39,347.57,469.51,347.57Z"/><path class="cls-2" d="M502.17,347.2V335.34H486V347.2h-1.88V321.89H486V333.6h16.21V321.89h1.88V347.2Z"/><path class="cls-2" d="M511.57,347.2V321.89h18v1.73H513.45v9.95H528v1.73h-14.5v10.17h16.31v1.73Z"/><path class="cls-2" d="M544.23,347.2H535.8V321.89h8.43c7.95,0,13.45,5.46,13.45,12.58v.07C557.68,341.67,552.18,347.2,544.23,347.2Zm11.5-12.66c0-6-4.45-10.92-11.5-10.92h-6.55v21.85h6.55c7,0,11.5-4.81,11.5-10.85Z"/><path class="cls-2" d="M578,321.7h1.45v25.5h-1.85V323.66l-4.88,1.66-.51-1.48Z"/><path class="cls-2" d="M593.88,347.64a11.53,11.53,0,0,1-7.63-3.15l1.19-1.44c2.14,1.91,4.16,2.89,6.48,2.89,5.1,0,8.68-5.46,8.39-13.06a8.74,8.74,0,0,1-7.89,4.88c-5.1,0-8.75-3.4-8.75-7.77a8.51,8.51,0,0,1,8.9-8.54A9,9,0,0,1,601,324c2,2,3.18,4.81,3.18,9.91C604.19,341.92,599.78,347.64,593.88,347.64Zm.47-24.49a6.59,6.59,0,0,0-6.73,6.76c0,3.59,2.86,6.19,6.88,6.19a6.75,6.75,0,0,0,7-6.47C601.55,326,598.55,323.15,594.35,323.15Z"/><path class="cls-2" d="M617.89,347.57c-5.31,0-9.4-2.93-9.4-7.17,0-3,2.42-5.24,5.61-6.29-2.5-1-4.74-2.89-4.74-5.93,0-4,4.16-6.66,8.53-6.66s8.54,2.68,8.54,6.66c0,3-2.24,4.92-4.74,5.93,3.18,1.05,5.61,3.29,5.61,6.29C627.3,344.64,623.21,347.57,617.89,347.57Zm0-12.55c-4.12,0-7.45,2.27-7.45,5.46,0,2.89,2.79,5.39,7.45,5.39s7.46-2.5,7.46-5.39C625.35,337.29,622,335,617.89,335Zm0-11.8c-3.69,0-6.58,2.06-6.58,5,0,3.15,3,5.24,6.58,5.24s6.59-2.09,6.59-5.24C624.48,325.28,621.58,323.22,617.89,323.22Z"/><path class="cls-2" d="M633.7,321.89h14.21v1.8H635.36l-.61,9.48a11.78,11.78,0,0,1,5.6-1.37c4.89,0,8.68,3.11,8.68,7.66,0,4.81-3.72,8.18-8.82,8.18a12.91,12.91,0,0,1-8.86-4.09l1.33-1.34c2.28,2.28,4.92,3.73,7.6,3.73,4,0,6.8-2.82,6.8-6.4s-2.86-6-6.94-6a11.4,11.4,0,0,0-5.72,1.59l-1.45-.94Z"/></g></g></svg>