<svg xmlns="http://www.w3.org/2000/svg" viewBox="0 0 340.29 140.64"><defs><style>.cls-1{fill:none;}.cls-2{fill:#fff;}</style></defs><g id="Layer_2" data-name="Layer 2"><g id="Layer_1-2" data-name="Layer 1"><polygon class="cls-1" points="152.82 136.91 158.22 136.91 155.53 130.98 152.82 136.91"/><rect class="cls-1" x="134.83" y="99" width="3.32" height="8.25"/><path class="cls-1" d="M208.17,80.41c11.85,0,15.8-29.57,16.06-36.11.12-3.21.89-11.07-4.21-11.07-7.39,0-13.37,19.38-14.65,25.69-.13.45-2.93-.44-3.69-1a38.1,38.1,0,0,0-.9,7.2C200.4,73.54,203,80.41,208.17,80.41Z"/><polygon class="cls-1" points="218.71 112.41 220.04 111.56 219.39 105.15 218.71 112.41"/><polygon class="cls-1" points="261.62 112.41 262.95 111.56 262.31 105.15 261.62 112.41"/><path class="cls-1" d="M252.64,132.77c0-1.17-1.18-2-2.67-2s-2.66.84-2.66,2,1.21,2.12,2.66,2.12S252.64,134,252.64,132.77Z"/><path class="cls-1" d="M250,135.53c-1.67,0-3,.92-3,2.21s1.12,2.18,3,2.18,3-1,3-2.18S251.64,135.53,250,135.53Z"/><rect class="cls-1" x="205.84" y="99" width="3.32" height="8.25"/><polygon class="cls-1" points="181.98 112.41 183.31 111.56 182.66 105.15 181.98 112.41"/><path class="cls-1" d="M167.07,135.65h-3.46v4.11h3.71c1.76,0,2.87-.8,2.87-2.09v0C170.19,136.38,169.09,135.65,167.07,135.65Z"/><path class="cls-1" d="M240.45,130.73a2.66,2.66,0,0,0-2.72,2.74,2.55,2.55,0,0,0,2.78,2.5,2.63,2.63,0,1,0-.06-5.24Z"/><path class="cls-1" d="M169.62,132.84v0c0-1.13-.92-1.89-2.56-1.89h-3.45v4H167C168.52,135,169.62,134.2,169.62,132.84Z"/><path class="cls-1" d="M109.31,33.23c-7.39,0-13.38,19.38-14.65,25.69-.13.45-2.93-.44-3.7-1a38.65,38.65,0,0,0-.89,7.2c-.38,8.41,2.17,15.28,7.39,15.28,11.85,0,15.8-29.57,16.06-36.11C113.64,41.09,114.41,33.23,109.31,33.23Z"/><polygon class="cls-1" points="66.98 112.41 68.32 111.56 67.67 105.15 66.98 112.41"/><polygon class="cls-1" points="318.85 112.41 320.18 111.56 319.53 105.15 318.85 112.41"/><path class="cls-1" d="M220.17,130.92h-2.65v8.84h2.65a4.35,4.35,0,0,0,4.65-4.39v0A4.38,4.38,0,0,0,220.17,130.92Z"/><rect class="cls-1" x="89.81" y="99" width="3.28" height="19.78"/><rect class="cls-1" x="330.07" y="99" width="3.32" height="8.25"/><rect class="cls-1" x="306.13" y="98.97" width="3.28" height="8.25"/><rect class="cls-1" x="114.59" y="98.97" width="3.28" height="19.78"/><rect class="cls-1" x="285.86" y="98.97" width="3.28" height="19.78"/><rect class="cls-1" x="306.13" y="110.5" width="3.28" height="8.25"/><rect class="cls-1" x="101.99" y="99" width="3.28" height="19.78"/><path class="cls-2" d="M43.83,83.4c.38-18.49,9.81-42.86,20.25-64.46-1.4,23.59.9,69.67,4.72,71.77,4.33,2.44,11.21,2.22,11,1-5.35-25-7.26-56.6-4.71-89.16C73.77,1,69.18,0,67.14,0,61.66,0,46.76,40.87,41.66,58.48h-.89c-1.27-7.86-2.68-37-.64-50.51a9.3,9.3,0,0,0-6.62-4C17.58,13.62.25,66.12,0,89.83.76,90.93,8.92,95,10.32,92s3.57-6.2,4.08-9.19c.51-2.66-2.93-.44-2.93-2.66,4.07-26,13.76-49.84,18.85-57.26l.51.55c-2,21.49-.13,35.44,2.29,56.38.77,3,4.59,4.54,7.65,4.54C41.66,84.4,43.32,84.4,43.83,83.4Z"/><path class="cls-2" d="M106.38,27.36a8.05,8.05,0,0,0-4.46,1.33,6.29,6.29,0,0,0-3.31-2.77c-8,2.1-16,20.38-16.69,34.78-.38,12.18,4.46,27.46,17.84,27.46,16.43,0,21.27-26.36,21.78-38.54C121.92,38.1,119.76,27.36,106.38,27.36Zm7.14,16.94c-.26,6.54-4.21,36.11-16.06,36.11-5.22,0-7.77-6.87-7.39-15.28a38.65,38.65,0,0,1,.89-7.2c.77.55,3.57,1.44,3.7,1,1.27-6.31,7.26-25.69,14.65-25.69C114.41,33.23,113.64,41.09,113.52,44.3Z"/><path class="cls-2" d="M134.54,85.28c.25-18.16,6.37-30.9,8.66-36.88.51,4.88,2.42,9.19,9.94,9.19,6.62,0,10.57-6.31,10.83-10.18,0-.78-1.15-1.44-2-1.44s-2.29,6.53-7.39,6.53c-2,0-3.82-1.77-3.82-3.32,0-6.34,3.35-11.72,4.81-15.72.28,2.14,3.27,5.61,5.89,5.08l5.73-1.1c-3.18,11.85-5.73,25.14-5.73,31.78,0,11.41,7.26,19.28,15.92,19.28,6.22,0,14.74-5,18.43-10.76,2.77,6,7.49,10.42,14.7,10.42,16.43,0,21.27-26.36,21.78-38.54.39-11.52-1.78-22.26-15.16-22.26a8.05,8.05,0,0,0-4.46,1.33,6.29,6.29,0,0,0-3.31-2.77c-8,2.1-16,20.38-16.69,34.78a43,43,0,0,0,.3,6.56c-1.1,5.8-11,13.15-18.26,13.15-2.68,0-4.08-1.77-4.08-4.65,0-10.08,3.95-25.81,8.15-40A181.88,181.88,0,0,1,197.6,34c1.66,0,1.91-.88,1.91-1.66s-2-3.1-2.67-3.65c-1.53-1.33-2.68-.11-3.44-1.66s-3.19-1-6-.78c-1.53.11-3.57.33-6,.66L184,18.72c.38-1.22-6.25-5.43-8.41-4.1-1.4.89-3.7,6.54-6,14.07-6.34,1.1-12.18,2.42-13.61,3.42a6.74,6.74,0,0,0,.23-1.65c0-2.22-1.4-3.32-4.07-3.88-3.7-.77-7,.11-7.9,2.77-1.78,5.54-4.33,15.51-7.65,22.6l-.89-.34c.39-6.53,2-14.73,2.42-20.71,0,0-3.95-2.55-7.26-2.55-4.33,0-4.71,10.64-5.09,21.6-1,24-2.43,28.14-2.43,31.35C123.32,83.73,131.61,86.84,134.54,85.28Zm66.24-20.15a38.1,38.1,0,0,1,.9-7.2c.76.55,3.56,1.44,3.69,1,1.28-6.31,7.26-25.69,14.65-25.69,5.1,0,4.33,7.86,4.21,11.07C224,50.84,220,80.41,208.17,80.41,203,80.41,200.4,73.54,200.78,65.13Z"/><path class="cls-2" d="M277.35,71.22c-1,2.88-3.56,8.75-7.77,8.75-3.56,0-5.22-2.77-5.22-8.42,0-14.73,6.75-29.13,7.77-40.43.38-3.54-5.48-5.53-8.92-5.53-1.14,0-2.29,0-2.8,1-7.14,12-12,25.14-16.82,37.44h-.51c0-11,3.57-21.27,5.1-31.9.38-2.77-2.55-3-4.08-3C236.33,29.13,233,51.39,233,75c0,8.42,1.53,14.4,7.26,14.4a6.5,6.5,0,0,0,4.33-1.66c-.13-10.41,6.63-29.24,11.85-39.1H258c-1.28,5.65-3.31,17.17-3.31,21.93,0,9,2.42,17,11.08,17,8.92,0,14.4-8.53,14.4-13.29A3,3,0,0,0,277.35,71.22Z"/><path class="cls-2" d="M278.12,35.66l7.13-.77c3.57-5.1,9.05-16.95,12-26.25l-11.6,1A140.37,140.37,0,0,1,278.12,35.66Z"/><path class="cls-2" d="M336.08,26.25c-1.91,0-32.87,9.64-33.38,14.29-.25,2.88,1,6.75,3.32,8.42,8.4.88,20.38,9.08,20.38,20.38,0,7.53-3.82,12.62-11.85,12.62-7.39,0-9-5.43-9-6.42S311,65.79,311,62.25c0-1-3.94-4.1-5.73-4.1-4.58,0-7.64,8.75-7.64,12.85,0,8.75,10.32,19.16,21,19.16,8.79,0,16.56-4.76,16.56-17.5,0-19.27-23.44-28.36-23.44-28.36l-.13-.44c.89-.89,10.58-5.32,13.89-5.43,1.27,0,1.65,3,2.93,3,3.18,0,11.85-6.09,11.85-10.3C340.29,29.13,337.36,26.25,336.08,26.25Z"/><polygon class="cls-2" points="44.88 102.29 49 102.29 48.58 101.06 48.58 97.32 46.94 95.68 40.33 95.68 38.65 97.32 38.65 107.4 39.76 109.05 45.26 111.33 45.26 118.78 41.98 118.78 41.98 116.72 42.4 115.5 38.27 115.5 38.65 116.72 38.65 120.42 40.33 122.06 46.94 122.06 48.58 120.42 48.58 110.38 47.51 108.74 41.98 106.45 41.98 99 45.26 99 45.26 101.06 44.88 102.29"/><polygon class="cls-2" points="61.41 98.97 60.99 95.68 51.1 95.68 51.52 96.9 51.52 120.8 51.1 122.06 60.99 122.06 61.41 118.74 54.8 118.74 54.8 110.5 56.87 110.5 58.13 110.92 58.13 106.79 56.87 107.21 54.8 107.21 54.8 98.97 61.41 98.97"/><path class="cls-2" d="M69.43,96.6l.3-.92H65.61l.3.92-3,23.71-.58,1.75h4.13L66.14,121l.46-4.65,2.06-1.3.58,5.95-.39,1.07H73l-.58-1.75ZM67,112.4l.69-7.25.65,6.41Z"/><polygon class="cls-2" points="84.81 98.97 84.39 95.68 74.5 95.68 74.92 96.9 74.92 120.8 74.5 122.06 78.63 122.06 78.21 120.8 78.21 110.5 80.27 110.5 81.49 110.92 81.49 106.79 80.27 107.21 78.21 107.21 78.21 98.97 84.81 98.97"/><path class="cls-2" d="M88.17,95.68l-1.64,1.64v23.1l1.64,1.64h6.61l1.64-1.64V97.32l-1.64-1.64Zm4.93,23.1H89.81V99H93.1Z"/><path class="cls-2" d="M100.35,95.68l-1.64,1.64v23.1l1.64,1.64H107l1.64-1.64V97.32L107,95.68Zm4.93,23.1H102V99h3.29Z"/><path class="cls-2" d="M110.89,95.68l.38,1.22v23.9l-.38,1.26h8.66l1.65-1.64V97.32l-1.65-1.64Zm7,23.06h-3.28V99h3.28Z"/><path class="cls-2" d="M139.79,110.53l1.64-1.64V97.32l-1.64-1.64h-8.67l.42,1.26v23.9l-.42,1.22h4.13l-.42-1.22V110.53h1.64L138,121l-.38,1.07h4.13l-.54-1.68Zm-1.64-3.28h-3.32V99h3.32Z"/><polygon class="cls-2" points="154.14 98.97 153.72 95.68 143.84 95.68 144.26 96.9 144.26 120.8 143.84 122.06 153.72 122.06 154.14 118.74 147.54 118.74 147.54 110.5 149.6 110.5 150.86 110.92 150.86 106.79 149.6 107.21 147.54 107.21 147.54 98.97 154.14 98.97"/><polygon class="cls-2" points="162.28 102.29 166.4 102.29 165.98 101.06 165.98 97.32 164.34 95.68 157.73 95.68 156.05 97.32 156.05 107.4 157.16 109.05 162.66 111.33 162.66 118.78 159.38 118.78 159.38 116.72 159.79 115.5 155.67 115.5 156.05 116.72 156.05 120.42 157.73 122.06 164.34 122.06 165.98 120.42 165.98 110.38 164.91 108.74 159.38 106.45 159.38 99 162.66 99 162.66 101.06 162.28 102.29"/><polygon class="cls-2" points="177.74 99 177.32 95.68 168.27 95.68 167.85 99 171.17 99 171.17 120.84 170.75 122.06 174.88 122.06 174.46 120.84 174.46 99 177.74 99"/><path class="cls-2" d="M188,122.06l-.57-1.75-3-23.71.31-.92H180.6l.31.92-3,23.71-.57,1.75h4.12l-.34-1.07.46-4.65,2.06-1.3.57,5.95-.38,1.07Zm-6-9.66.68-7.25.65,6.41Z"/><polygon class="cls-2" points="191.18 122.06 197.78 122.06 199.43 120.42 199.43 96.94 199.84 95.68 195.72 95.68 196.14 96.94 196.14 118.78 192.82 118.78 192.82 96.94 193.24 95.68 189.12 95.68 189.54 96.94 189.54 120.42 191.18 122.06"/><path class="cls-2" d="M205.84,110.53h1.64L209,121l-.38,1.07h4.12l-.54-1.68-1.41-9.85,1.64-1.64V97.32l-1.64-1.64h-8.66l.41,1.26v23.9l-.41,1.22h4.12l-.42-1.22Zm0-11.53h3.32v8.25h-3.32Z"/><path class="cls-2" d="M224.7,122.06l-.57-1.75-3-23.71.3-.92h-4.12l.31.92-3,23.71-.57,1.75h4.12l-.35-1.07.46-4.65,2.06-1.3L221,121l-.38,1.07Zm-6-9.66.69-7.25.65,6.41Z"/><polygon class="cls-2" points="229.93 107.67 233.25 122.06 236.95 122.06 236.53 120.84 236.53 96.94 236.95 95.68 232.83 95.68 233.25 96.94 233.25 110.08 229.93 95.68 226.23 95.68 226.65 96.94 226.65 120.84 226.23 122.06 230.35 122.06 229.93 120.84 229.93 107.67"/><polygon class="cls-2" points="245.2 99 248.48 99 248.06 95.68 239.01 95.68 238.59 99 241.92 99 241.92 120.84 241.5 122.06 245.62 122.06 245.2 120.84 245.2 99"/><path class="cls-2" d="M264.06,96.6l.31-.92h-4.13l.31.92-3,23.71-.57,1.75h4.12l-.34-1.07.46-4.65,2.06-1.3.57,5.95-.38,1.07h4.12l-.57-1.75Zm-2.44,15.8.68-7.25.65,6.41Z"/><polygon class="cls-2" points="279.87 95.68 275.74 95.68 276.16 96.94 276.16 110.08 272.84 95.68 269.14 95.68 269.56 96.94 269.56 120.84 269.14 122.06 273.26 122.06 272.84 120.84 272.84 107.67 276.16 122.06 279.87 122.06 279.45 120.84 279.45 96.94 279.87 95.68"/><path class="cls-2" d="M282.16,95.68l.38,1.22v23.9l-.38,1.26h8.66l1.65-1.64V97.32l-1.65-1.64Zm7,23.06h-3.28V99h3.28Z"/><path class="cls-2" d="M302.39,95.68l.42,1.22v23.9l-.42,1.26h8.67l1.64-1.64V110.5L311,108.85l1.68-1.64V97.32l-1.64-1.64Zm7,23.06h-3.29V110.5h3.29Zm0-11.53h-3.29V99h3.29Z"/><path class="cls-2" d="M321.29,96.6l.31-.92h-4.13l.31.92-3,23.71-.57,1.75h4.12L318,121l.46-4.65,2.06-1.3.57,5.95-.38,1.07h4.12l-.57-1.75Zm-2.44,15.8.68-7.25.65,6.41Z"/><path class="cls-2" d="M335,110.53l1.64-1.64V97.32L335,95.68h-8.67l.42,1.26v23.9l-.42,1.22h4.12l-.42-1.22V110.53h1.64L333.24,121l-.38,1.07H337l-.53-1.68Zm-1.65-3.28h-3.32V99h3.32Z"/><polygon class="cls-2" points="124.94 135.65 130.81 135.65 130.81 134.95 124.94 134.95 124.94 130.92 131.46 130.92 131.46 130.22 124.18 130.22 124.18 140.46 131.54 140.46 131.54 139.76 124.94 139.76 124.94 135.65"/><path class="cls-2" d="M137.48,135c-2.43-.5-3-1.15-3-2.24v0c0-1.07,1-1.93,2.5-1.93a4.38,4.38,0,0,1,3.06,1.16l.48-.6a5,5,0,0,0-3.51-1.25c-1.9,0-3.29,1.17-3.29,2.7v0c0,1.55,1,2.38,3.45,2.88s2.9,1.1,2.9,2.18v0c0,1.17-1.05,2-2.59,2a5,5,0,0,1-3.67-1.52l-.5.57a5.83,5.83,0,0,0,4.13,1.64c2,0,3.39-1.14,3.39-2.8v0C140.84,136.29,139.85,135.44,137.48,135Z"/><polygon class="cls-2" points="142.39 130.92 145.96 130.92 145.96 140.46 146.72 140.46 146.72 130.92 150.29 130.92 150.29 130.22 142.39 130.22 142.39 130.92"/><path class="cls-2" d="M155.18,130.15l-4.77,10.31h.79l1.3-2.87h6.05l1.3,2.87h.83l-4.77-10.31Zm-2.36,6.76,2.71-5.93,2.69,5.93Z"/><path class="cls-2" d="M168.66,135.2a2.54,2.54,0,0,0,1.74-2.43v0c0-1.54-1.34-2.52-3.33-2.52h-4.22v10.24h4.44c2.21,0,3.68-1.08,3.68-2.79v0C171,136.22,169.88,135.52,168.66,135.2Zm-5-4.28h3.45c1.64,0,2.56.76,2.56,1.89v0c0,1.36-1.1,2.11-2.63,2.11h-3.38Zm6.58,6.75c0,1.29-1.11,2.09-2.87,2.09h-3.71v-4.11h3.46c2,0,3.12.73,3.12,2Z"/><polygon class="cls-2" points="174.17 130.22 173.41 130.22 173.41 140.46 180.18 140.46 180.18 139.76 174.17 139.76 174.17 130.22"/><rect class="cls-2" x="182.57" y="130.22" width="0.76" height="10.24"/><path class="cls-2" d="M190,135c-2.43-.5-3-1.15-3-2.24v0c0-1.07,1-1.93,2.5-1.93a4.39,4.39,0,0,1,3.06,1.16l.48-.6a5.08,5.08,0,0,0-3.51-1.25c-1.9,0-3.29,1.17-3.29,2.7v0c0,1.55,1,2.38,3.45,2.88s2.9,1.1,2.9,2.18v0c0,1.17-1.06,2-2.59,2a5,5,0,0,1-3.68-1.52l-.49.57a5.79,5.79,0,0,0,4.12,1.64c2,0,3.4-1.14,3.4-2.8v0C193.34,136.29,192.34,135.44,190,135Z"/><polygon class="cls-2" points="203.15 134.96 196.6 134.96 196.6 130.22 195.84 130.22 195.84 140.46 196.6 140.46 196.6 135.66 203.15 135.66 203.15 140.46 203.91 140.46 203.91 130.22 203.15 130.22 203.15 134.96"/><polygon class="cls-2" points="207.72 135.65 213.59 135.65 213.59 134.95 207.72 134.95 207.72 130.92 214.24 130.92 214.24 130.22 206.96 130.22 206.96 140.46 214.32 140.46 214.32 139.76 207.72 139.76 207.72 135.65"/><path class="cls-2" d="M220.17,130.22h-3.41v10.24h3.41a5.13,5.13,0,0,0,5.44-5.12v0A5.1,5.1,0,0,0,220.17,130.22Zm4.65,5.15a4.35,4.35,0,0,1-4.65,4.39h-2.65v-8.84h2.65a4.38,4.38,0,0,1,4.65,4.42Z"/><polygon class="cls-2" points="231.51 131.01 231.71 131.61 233.69 130.94 233.69 140.46 234.43 140.46 234.43 130.15 233.85 130.15 231.51 131.01"/><path class="cls-2" d="M240.53,130a3.44,3.44,0,0,0-3.59,3.46,3.27,3.27,0,0,0,3.54,3.14,3.54,3.54,0,0,0,3.19-2c.11,3.07-1.34,5.28-3.4,5.28a3.85,3.85,0,0,1-2.62-1.17l-.48.59a4.69,4.69,0,0,0,3.09,1.27c2.38,0,4.17-2.31,4.17-5.55,0-2.06-.47-3.19-1.29-4A3.66,3.66,0,0,0,240.53,130Zm0,5.93a2.55,2.55,0,0,1-2.78-2.5,2.66,2.66,0,0,1,2.72-2.74,2.63,2.63,0,1,1,.06,5.24Z"/><path class="cls-2" d="M251.51,135.17a2.66,2.66,0,0,0,1.92-2.4c0-1.61-1.69-2.7-3.46-2.7s-3.45,1.09-3.45,2.7a2.66,2.66,0,0,0,1.92,2.4,2.87,2.87,0,0,0-2.27,2.54c0,1.71,1.65,2.9,3.8,2.9s3.81-1.19,3.81-2.9A2.87,2.87,0,0,0,251.51,135.17Zm-4.2-2.4c0-1.17,1.17-2,2.66-2s2.67.84,2.67,2-1.22,2.12-2.67,2.12S247.31,134,247.31,132.77Zm2.66,7.15c-1.89,0-3-1-3-2.18s1.34-2.21,3-2.21,3,.92,3,2.21S251.86,139.92,250,139.92Z"/><path class="cls-2" d="M259.06,134.23a4.73,4.73,0,0,0-2.27.56L257,131h5.08v-.73h-5.76l-.29,5,.59.38a4.62,4.62,0,0,1,2.31-.64,2.54,2.54,0,0,1,2.81,2.44A2.6,2.6,0,0,1,259,140a4.47,4.47,0,0,1-3.07-1.51l-.55.55a5.28,5.28,0,0,0,3.59,1.65,3.32,3.32,0,0,0,3.57-3.31A3.22,3.22,0,0,0,259.06,134.23Z"/></g></g></svg>